<svg width="410" height="403" viewBox="0 0 410 403" fill="none" xmlns="http://www.w3.org/2000/svg">
<path d="M289.99 204.821C278.965 205.092 267.058 200.94 256.104 201.945C253.512 202.182 249.582 203.31 247.874 205.379L288.005 205.382L289.99 204.821ZM164.21 205.379C162.521 203.202 159.796 202.182 157.12 201.945C145.775 200.934 133.476 204.663 122.088 205.098C136.121 206.34 150.25 204.22 164.21 205.379ZM126.079 114.896C125.01 114.646 124.726 115.491 124.085 116.027C115.414 123.295 105.998 134.216 100.228 143.962C95.8823 151.294 92.3161 159.382 90.7966 167.818L101.366 146.807C108.535 135.334 117.628 125.299 126.079 114.896ZM247.933 247.439C245.242 236.25 242.847 223.515 243.901 211.938C244.884 201.116 255.352 199.396 264.275 197.596C278.043 194.816 292.363 193.792 306.181 191.139C316.423 197.627 320.902 208.692 315.61 220.18C324.536 212.967 324.302 201.575 317.548 192.911C296.589 166.021 225.611 164.015 194.067 164.952C167.665 165.732 111.781 170.287 93.9158 191.718C86.2133 200.959 85.7386 211.46 94.4953 220.18C94.4305 217.378 92.7446 214.804 92.5072 211.925C92.0726 206.679 93.8634 201.809 97.0659 197.713C98.0214 196.489 102.392 191.977 103.606 191.74C104.784 191.508 106.291 191.724 107.512 191.801C119.597 192.544 139.391 195.451 151.224 198.166C158.973 199.941 168.183 202.262 169.271 211.423C170.571 222.359 168.392 234.601 165.914 245.223C160.15 242.492 154.621 241.074 148.139 241.956C145.349 242.335 141.648 244.807 139.524 244.637C137.708 244.492 131.729 242.239 129.516 241.503C108.384 234.478 82.8937 219.523 79.4786 195.352C73.9552 156.238 117.446 107.517 147.864 87.4455C188.254 60.7902 225.784 61.7088 265.36 89.1531C295.48 110.035 337.817 158.599 330.121 197.99C323.694 230.89 277.057 245.648 247.933 247.439Z" fill="white"/>
<path d="M155.672 253.197C139.259 251.569 127.703 265.467 127.793 281.076L132.133 270.913C136.238 264.024 141.937 258.295 149.424 255.194L155.672 253.197ZM264.944 175.795L249.77 183.088C247.489 184.814 244.474 185.976 242.751 188.303C253.129 185.547 263.128 181.053 273.411 177.799L283.157 180.335C269.385 184.663 247.285 187.665 240.372 202.148C235.259 212.862 238.159 231.608 240.643 243.065C242.076 249.683 244.317 256.091 246.191 262.582C244.326 265.122 241.102 266.342 238.785 268.857C233.986 274.07 227.18 287.934 235.163 292.936C237.166 294.194 238.754 294.12 240.785 294.724C241.22 294.85 242.027 294.526 241.608 295.584C241.032 297.035 236.938 301.785 235.647 303.283C232.241 307.231 223.999 312.561 229.353 318.667C233.872 323.817 242.255 322.199 246.755 317.807C249.027 315.587 255.669 303.539 254.066 301.067C253.829 300.7 246.795 298.607 245.599 298.718C246.305 295.941 246.694 294.548 249.847 294.727C253.804 294.955 258.194 295.701 262.102 296.441C258.825 293.898 253.663 292.147 249.588 291.034C247.215 290.387 236.47 289.225 236.044 286.99C235.286 282.987 243.692 275.46 246.912 273.573C252.152 270.503 259.54 268.857 265.517 269.69C265.011 268.645 262.207 268.155 261.189 268.05C255.053 267.424 249.498 268.463 243.892 270.83C259.599 255.037 278.771 266.386 282.445 286.063C285.102 300.275 278.12 312.336 264.386 300.432C263.137 307.645 261.319 314.604 257.549 320.914C262.922 321.555 268.39 321.179 273.765 321.493C283.804 322.082 295.199 322.495 305.068 323.771C309.513 324.347 317.234 326.042 307.858 327.688C293.433 330.219 273.91 329.125 258.949 329.433C209.676 330.444 159.583 331.141 110.421 328.323C108.387 328.206 96.8007 328.08 95.95 327.14C95.8391 327.02 95.8391 325.065 95.95 324.942C96.209 324.655 102.537 323.9 103.603 323.771C120.312 321.77 137.721 321.792 154.534 320.914C148.225 312.847 147.433 302.855 146.564 293.038C151.594 292.249 157 290.279 160.227 286.207C156.048 286.62 151.797 287.268 147.701 288.186C135.73 290.871 120.032 299.732 121.601 278.588C122.91 260.967 139.219 244.249 157.509 247.655C170.331 250.04 186.303 265.214 184.099 279.054C182.833 286.997 166.694 284.987 166.447 286.553C167.489 291.321 169.865 295.692 172.76 299.566C176.64 304.756 183.233 309.081 182.996 316.364C192.699 316.928 197.051 308.406 199.902 300.549L203.77 284.497L205.194 309.537C208.995 304.738 209.987 296.527 210.807 290.396C212.012 281.408 212.545 271.924 212.595 262.869C213.421 262.835 213.455 264.918 213.559 265.593C214.897 274.07 215.736 283.584 216.568 292.184C216.765 294.24 215.711 297.559 217.705 298.721C218.454 293.18 219.709 287.561 220.011 281.957C221.092 261.95 218.399 241.879 218.855 221.89L220.55 231.855C221.444 244.039 223.284 256.137 224.535 268.278C224.748 270.337 223.666 273.65 225.673 274.819C226.129 265.242 226.345 255.696 226.274 246.049C226.163 230.582 222.079 198.03 233.082 186.321C235.493 183.757 248.118 175.299 251.262 174.34C254.473 173.36 261.371 175.493 264.944 175.795Z" fill="white"/>
<path d="M161.362 195.145C161.494 196.202 160.215 195.567 159.626 195.46C142.15 192.186 124.507 190.494 106.732 189.736C111.229 186.469 116.398 184.293 121.724 182.779C135.092 186.41 148.786 189.212 161.362 195.145Z" fill="white"/>
<path d="M180.712 195.139C173.949 188.115 165.338 183.796 156.627 179.672L147.14 175.795C150.45 175.675 154.519 174.121 157.743 174.121C159.836 174.121 172.159 182.372 174.187 184.308C176.927 186.925 180.046 191.348 180.712 195.139Z" fill="white"/>
<path d="M190.88 171.883L196.647 195.706L181.865 172.657C181.806 171.486 189.906 171.766 190.88 171.883Z" fill="white"/>
<path d="M222.834 171.81L210.887 195.706L213.757 171.267L222.834 171.81Z" fill="white"/>
<ellipse cx="156.326" cy="208.782" rx="9.13117" ry="7.85974" fill="white"/>
<ellipse cx="136.33" cy="205.776" rx="19.4182" ry="7.85974" fill="white"/>
<ellipse cx="270.292" cy="205.776" rx="23.0013" ry="7.85974" fill="white"/>
<ellipse cx="216.777" cy="327.602" rx="108.187" ry="7.3974" fill="white"/>
<ellipse cx="193.197" cy="327.602" rx="108.187" ry="7.3974" fill="white"/>
</svg>
